<?xml version="1.0" encoding="utf-8"?>
<!-- Generator: Adobe Illustrator 19.0.1, SVG Export Plug-In . SVG Version: 6.00 Build 0)  -->
<svg version="1.1" id="hand_x5F_arrow_1_" xmlns="http://www.w3.org/2000/svg" xmlns:xlink="http://www.w3.org/1999/xlink" x="0px"
	 y="0px" viewBox="-235 162 128 128" style="enable-background:new -235 162 128 128;" xml:space="preserve">
<style type="text/css">
	.st0{display:none;}
	.st1{display:inline;}
	.st2{fill:#BCBABB;}
	.st3{fill:#2E1F24;}
	.st4{display:inline;fill:#2E1F24;}
</style>
<g id="row3_1_">
	<g id="thumb_1_" class="st0">
		<g id="dots" class="st1">
			<g>
				<path class="st2" d="M-384.3,394.9l4.1,0.5l0.5-4.1l-4.1-0.5L-384.3,394.9z M-381.2,403.6l0.5-4.1l-4.1-0.5l-0.5,4.1
					L-381.2,403.6z M-382.3,411.8l0.5-4.1l-4.1-0.5l-0.5,4.1L-382.3,411.8z M-383.3,420.1l0.5-4.1l-4.1-0.5l-0.5,4.1L-383.3,420.1z
					 M-384.3,428.3l0.5-4.1l-4.1-0.5l-0.5,4.1L-384.3,428.3z M-385.4,436.5l0.5-4.1l-4.1-0.5l-0.5,4.1L-385.4,436.5z M-386.4,444.8
					l0.5-4.1l-4.1-0.5l-0.5,4.1L-386.4,444.8z M-391.9,389.7l-0.5,4.1l4.1,0.5l0.5-4.1L-391.9,389.7z M-393,398l-0.5,4.1l4.1,0.5
					l0.5-4.1L-393,398z M-394,406.2l-0.5,4.1l4.1,0.5l0.5-4.1L-394,406.2z M-395,414.4l-0.5,4.1l4.1,0.5l0.5-4.1L-395,414.4z
					 M-396.1,422.7l-0.5,4.1l4.1,0.5l0.5-4.1L-396.1,422.7z M-397.1,430.9l-0.5,4.1l4.1,0.5l0.5-4.1L-397.1,430.9z M-398.7,443.3
					l4.1,0.5l0.5-4.1l-4.1-0.5L-398.7,443.3z M-388.9,398.5l4.1,0.5l0.5-4.1l-4.1-0.5L-388.9,398.5z M-389.9,406.7l4.1,0.5l0.5-4.1
					l-4.1-0.5L-389.9,406.7z M-391,414.9l4.1,0.5l0.5-4.1l-4.1-0.5L-391,414.9z M-392,423.2l4.1,0.5l0.5-4.1l-4.1-0.5L-392,423.2z
					 M-393,431.4l4.1,0.5l0.5-4.1l-4.1-0.5L-393,431.4z M-394.1,439.6l4.1,0.5l0.5-4.1l-4.1-0.5L-394.1,439.6z M-378.9,386.9
					l-0.3-4.1l-4.1,0.2l0.3,4.1L-378.9,386.9z M-388,387.5l0.2,3.3l4.1-0.3l-0.3-4.1l-3.2,0.2l-0.2-3.3l-4.1,0.3l0.3,4.1L-388,387.5
					z"/>
			</g>
		</g>
		<g id="icon" class="st1">
			<g>
				<path class="st3" d="M-372.9,413.1c0.1-1.9-2.6-5.7-2.1-12.4c0.2-2.6,4.2-5.8,4.1-8.3c-0.1-4-2.5-7-4.1-10.4
					c-2.6-5.3-20.7-14.5-20.7-14.5s-5.8-3.3-6.2-12.4c-0.4-9.2,1-31.1-12.4-31.1c-6,0-13.8,10.6-14.5,22.8
					c-0.9,15.8,3.7,27.9,1.4,28.8c-4.5,1.9-8.2,6.9-7.6,12.6c0.7,7.8,6.2,6.2,6.2,6.2s-11.1,4-10.4,12.4c0.5,5.3,6.9,7.3,10.4,8
					c1.2,0.1,2.1,0.3,2.1,0.3s-0.8-0.1-2.1-0.3c-4-0.4-12.4-0.2-12.4,8.6c0,7,6.2,8.3,6.2,8.3s-3.7,2.5-4.1,6.2
					c-0.9,6.6,2.1,10.9,10.4,12.4c15.3,2.9,32.5,1.8,39.4-2.1c2.4-1.3,2.4-3.9,4.1-6.2c3.3-4.5,6.2-4.1,8.3-8.3c1-1.9-1.7-4.5,0-8.3
					C-375,420.9-373,416.9-372.9,413.1z M-421.9,346c1-6.8,2.6-14.7,7.7-15.8c4.9,0,5.8,11.9,6.2,26.9c0.4,14.4,12.3,16.4,16.9,16.6
					h1.8c0,0-0.7,0-1.8,0h-29.4C-420.5,373.7-424.1,360.8-421.9,346z M-379.1,413.1c0,2.2-2.9,6.3-4.1,10.4c-0.6,2.2,0.4,7.2,0,8.3
					c-0.8,2.3-4.3,3.3-8.3,6.2c-1.4,1-1,5.5-2.1,6.2c-3.9,2.7-6.7,2.5-12.5,2.9c-6.6,0.4-15.4-0.3-21.1-1.7
					c-3.4-0.9-6.6-2.9-5.8-7.4c0.6-3.2,13-0.8,20.9-1.6c3.5-0.3,6-0.5,6-0.5v-4.1c0,0-2.6,0.2-6.3,0.2c-8.6,0.1-23-2.7-22.7-8.5
					c0.2-3.9,15.3-4.4,25.1-4.4c4.6,0,8.1,0.2,8.1,0.2v-4.1c0,0-3.5-0.1-8.2-0.6c-9.1-0.9-22.4-1.3-22.8-7.7
					c-0.2-2.7,4.5-5.6,10.4-6.2c3.2-0.4,26.9,0,26.9,0v-4.1c0,0-5.8,0.4-12.4,0c-13.4-0.8-18.7-5.5-20-6.7c-1.3-1.2-0.6-2.6-0.7-3.7
					c-0.8-9.1,44-8.5,47.7-2.1c5,9,0,14.5,0,14.5s0,3.1,0,6.2C-381.1,407.5-379.1,412.1-379.1,413.1z"/>
			</g>
		</g>
	</g>
	<g id="two_3_" class="st0">
		<g id="dot" class="st1">
			<g>
				<path class="st2" d="M-378.1,424.9l-4.2,0.3l0.3,4.2l4.2-0.3L-378.1,424.9z M-386.5,425.5l-4.2,0.3l0.3,4.2l4.2-0.3
					L-386.5,425.5z M-394.9,426.1l-4.2,0.3l0.3,4.2l4.2-0.3L-394.9,426.1z M-403.3,426.7l-4.2,0.3l0.3,4.2l4.2-0.3L-403.3,426.7z
					 M-411.7,427.2l-4.2,0.3l0.3,4.2l4.2-0.3L-411.7,427.2z M-420.1,427.8l-4.2,0.3l0.3,4.2l4.2-0.3L-420.1,427.8z M-432.7,428.7
					l0.3,4.2l4.2-0.3l-0.3-4.2L-432.7,428.7z M-377.2,437.5l-0.3-4.2l-4.2,0.3l0.3,4.2L-377.2,437.5z M-390.1,434.2l0.3,4.2l4.2-0.3
					l-0.3-4.2L-390.1,434.2z M-398.5,434.8l0.3,4.2l4.2-0.3l-0.3-4.2L-398.5,434.8z M-406.9,435.4l0.3,4.2l4.2-0.3l-0.3-4.2
					L-406.9,435.4z M-415.3,436l0.3,4.2l4.2-0.3l-0.3-4.2L-415.3,436z M-423.7,436.6l0.3,4.2l4.2-0.3l-0.3-4.2L-423.7,436.6z
					 M-432.1,437.1l0.3,4.2l4.2-0.3l-0.3-4.2L-432.1,437.1z M-381.7,433.6l-0.3-4.2l-4.2,0.3l0.3,4.2L-381.7,433.6z M-390.1,434.2
					l-0.3-4.2l-4.2,0.3l0.3,4.2L-390.1,434.2z M-398.5,434.8l-0.3-4.2l-4.2,0.3l0.3,4.2L-398.5,434.8z M-406.9,435.4l-0.3-4.2
					l-4.2,0.3l0.3,4.2L-406.9,435.4z M-415.3,436l-0.3-4.2l-4.2,0.3l0.3,4.2L-415.3,436z M-424,432.3l-4.2,0.3l0.3,4.2l4.2-0.3
					L-424,432.3z M-385.6,438.1l0.3,4.2l4.2-0.3l-0.3-4.2L-385.6,438.1z M-393.7,442.9l4.2-0.3l-0.3-4.2l-4.2,0.3L-393.7,442.9z
					 M-402.1,443.5l4.2-0.3l-0.3-4.2l-4.2,0.3L-402.1,443.5z M-410.5,444.1l4.2-0.3l-0.3-4.2l-4.2,0.3L-410.5,444.1z M-418.9,444.7
					l4.2-0.3l-0.3-4.2l-4.2,0.3L-418.9,444.7z M-427.3,445.3l4.2-0.3l-0.3-4.2l-4.2,0.3L-427.3,445.3z"/>
			</g>
		</g>
		<path id="icon_1_" class="st4" d="M-448.9,385c-0.7-5.2,3.9-10.1,9.1-10.8c1.6-0.2,4.2-0.6,4.2-0.6l0.7,5.2
			c-0.8-5.7,1.9-10.9,7-12.5c0.6-0.2,1.8-0.4,1.8-0.4s-3.8-21.2-4.3-23.4c-0.4-2.2-4.3-15.4,8.2-17.4c8.4-1.3,11.6,8.5,13.7,13
			c2.1,4.8,9,39.8,8.9,40.1c0,0,11.1-44.9,11.3-46.6c0.3-1.7,2.3-6.6,8.5-7.5c6.3-0.9,12.2,3.6,13,9.9l-9.5,40l0,0
			c0,0,4.8-0.4,9.7,7.2c3.5,5.4,3.7,23.3,3.4,25.1c-3.6,24-12.7,42.2-35.2,45.3s-43.2-12.7-46.3-35.2L-448.9,385z M-442.6,384.2
			c-0.2-1.7,2-3.5,3.7-3.7c1.7-0.2,4.4,0.8,4.6,2.6l1.3,9.4l6.3-0.9l-1.9-13.6c-0.4-2.9,0.6-5.4,3.4-5.8c2.9-0.4,4.5,1.8,4.9,4.7
			l1.9,13.6l6.3-0.9l-7.2-22.5l-6.4-29.8c-0.4-2.9,1.6-5.6,4.5-5.9c2.9-0.4,4.5,1.9,5.9,4.5l13.8,52.2l6.1-0.8l12-51
			c0.4-3.1,1.6-5.6,4.5-5.9c2.8-0.4,5.5,1.6,5.9,4.5l-13.8,66.5l6.2,1.2l3.4-21.8c0,0,2-0.4,4.7,3.3c6,8.1,4.6,19.5,1.9,29.6
			c-3.6,13.5-9.6,29-28.6,31.6s-36.5-10.7-39.1-29.8L-442.6,384.2z"/>
	</g>
	<g id="punch_1_" class="st0">
		<g id="dots_1_" class="st1">
			<g>
				<path class="st2" d="M-428,350.8l0.7,4.7l4.7-0.7l-0.7-4.7L-428,350.8z M-413.9,348.8l-4.7,0.7l0.7,4.7l4.7-0.7L-413.9,348.8z
					 M-404.6,347.4l-4.7,0.7l0.7,4.7l4.7-0.7L-404.6,347.4z M-395.2,346.1l-4.7,0.7l0.7,4.7l4.7-0.7L-395.2,346.1z M-385.8,344.8
					l-4.7,0.7l0.7,4.7l4.7-0.7L-385.8,344.8z M-376.4,343.4l-4.7,0.7l0.7,4.7l4.7-0.7L-376.4,343.4z M-367,342.1l-4.7,0.7l0.7,4.7
					l4.7-0.7L-367,342.1z M-426,364.8l4.7-0.7l-0.7-4.6l-4.7,0.7L-426,364.8z M-416.6,363.5l4.7-0.7l-0.7-4.7l-4.7,0.7L-416.6,363.5
					z M-407.2,362.2l4.7-0.7l-0.7-4.7l-4.7,0.7L-407.2,362.2z M-397.9,360.9l4.7-0.7l-0.7-4.7l-4.7,0.7L-397.9,360.9z M-388.5,359.5
					l4.7-0.7l-0.7-4.7l-4.7,0.7L-388.5,359.5z M-379.1,358.2l4.7-0.7l-0.7-4.7l-4.7,0.7L-379.1,358.2z M-365.7,351.5l-4.7,0.7
					l0.7,4.7l4.7-0.7L-365.7,351.5z M-422.7,354.8l0.7,4.7l4.7-0.7l-0.7-4.7L-422.7,354.8z M-413.3,353.5l0.7,4.7l4.7-0.7l-0.7-4.7
					L-413.3,353.5z M-403.9,352.1l0.7,4.7l4.7-0.7l-0.7-4.7L-403.9,352.1z M-394.5,350.8l0.7,4.7l4.7-0.7l-0.7-4.7L-394.5,350.8z
					 M-385.1,349.5l0.7,4.7l4.7-0.7l-0.7-4.7L-385.1,349.5z M-375.7,348.1l0.7,4.7l4.7-0.7l-0.7-4.6L-375.7,348.1z M-464.4,362
					l1.5,4.5l4.5-1.5l-1.6-4.5L-464.4,362z M-451,357.4l-4.5,1.5l1.5,4.5l4.5-1.5L-451,357.4z M-442,354.3l-4.5,1.5l1.5,4.5l4.5-1.5
					L-442,354.3z M-433.1,351.2l-4.5,1.5l1.5,4.5l4.5-1.5L-433.1,351.2z M-459.8,375.4l4.5-1.5l-1.5-4.5l-4.5,1.6L-459.8,375.4z
					 M-450.8,372.4l4.5-1.5l-1.5-4.5l-4.5,1.5L-450.8,372.4z M-441.9,369.3l4.5-1.5l-1.5-4.5l-4.5,1.5L-441.9,369.3z M-458.4,364.9
					l1.5,4.5l4.5-1.5l-1.5-4.5L-458.4,364.9z M-449.4,361.8l1.5,4.5l4.5-1.5l-1.6-4.5L-449.4,361.8z M-440.5,358.8l1.5,4.5l4.5-1.5
					l-1.5-4.6L-440.5,358.8z M-426.1,359.9l-1.5-4.5l-4.5,1.6l1.2,3.5l-3.6,1.2l1.5,4.5l4.5-1.5l-1.2-3.5L-426.1,359.9z"/>
			</g>
		</g>
		<g id="icon_2_" class="st1">
			<g>
				<path class="st3" d="M-347.9,373.9c-3.9-16.4-11-32-15.4-34.7c-3.6-2.2-6.9-2.6-9.5-2.4c-6.2,0.6-11.9,4.7-11.9,4.7
					s-8.3-6.3-16.6-4.7c-10.4,2-19,11.8-19,11.8s-6.8-4.8-14.2-2.4c-6.8,2.3-14.2,11.8-14.2,11.8s-5-1.7-9.5,0
					c-12.6,5-11.8,20.5-11.8,38.9c0,8.5,4.7,18.2,4.7,18.2s3.2,3.5,7.1,4.7c13.1,4.1,11.9-11.8,11.9-11.8s1.6,15.6,16.6,16.6
					c10.2,0.7,14.2-14.2,14.2-14.2s2,9,8.7,13.4c3.7,2.4,10.3,3.4,15,0.9c6.4-3.6,9.5-9.5,9.5-9.5s9.1,5.3,19,2.4
					c-9.2,3-17.1-1.5-19,0c-2.9,2.4-14.8,11.4-9.5,19c4.9,6.9,33.5,0.3,40.3-7.1c3.9-4.3,9.5-19,9.5-19S-343.1,394-347.9,373.9z
					 M-379.9,405.6c-0.9-12.1-4.7-35.6-4.7-35.6h-7.1c0,0,9.7,39.9-2.4,47.4c-3.2,2-8.2,2.4-10.4,1.4c-9.5-4.5-8.6-41.7-8.6-41.7
					h-7.1c0,0,6.5,38.7-9.5,40.3c-12,1.2-14.2-35.5-14.2-35.5h-4.7c0,0,2.5,36-7.1,30.8c-7.2-3.9-7.3-14.6-7.2-23.7
					c0.2-12.3,0.1-21.3,4.7-23.7c2.9-1.5,11.9,0,11.9,0s5.9-9.9,14.2-11.9c6.9-1.6,14.2,2.4,14.2,2.4s6.7-9.8,16.6-11.8
					c7.5-1.5,16.6,4.7,16.6,4.7s12.4-7.7,19-2.4c1.1,0.9,10,15,10.7,29.8c0.1,2.8-8.3-13.2-8.3-13.2s2.5,36.3,2.4,40.3
					C-361.2,412.7-379.1,417.2-379.9,405.6z M-356.2,424.6c-3.4,1.5-25.4,14.8-30.8,7.1c-1.2-1.7,7.1-9.5,7.1-9.5s6.8-0.3,14.2-2.4
					c4.4-1.2,8-5.3,9.1-6.7c-0.7,0.8-2.4,2.5-5.4,3.8c2.6-1.1,4.5-3.1,5.8-4.9l2.3-27.8l4.7,23.7
					C-349.1,408-352.8,423.1-356.2,424.6z M-355,410.2c0.8-1.3,1.1-2.2,1.1-2.2L-355,410.2z M-356.6,413.2c0.2-0.3,0.4-0.4,0.4-0.4
					S-356.4,412.9-356.6,413.2z M-355,410.2c-0.3,0.6-0.7,1.2-1.2,1.8l-0.1,0.7L-355,410.2z"/>
			</g>
		</g>
	</g>
	<g id="Okay_1_" class="st0">
		<g id="dots_2_" class="st1">
			<g>
				<path class="st2" d="M-426.4,433.5l0.6,4l4-0.6l-0.6-4L-426.4,433.5z M-414.4,431.8l-4,0.6l0.6,4l4-0.6L-414.4,431.8z
					 M-406.3,430.7l-4,0.6l0.6,4l4-0.6L-406.3,430.7z M-398.3,429.5l-4,0.6l0.6,4l4-0.6L-398.3,429.5z M-390.2,428.4l-4,0.6l0.6,4
					l4-0.6L-390.2,428.4z M-382.2,427.2l-4,0.6l0.6,4l4-0.6L-382.2,427.2z M-374.1,426.1l-4,0.6l0.6,4l4-0.6L-374.1,426.1z
					 M-424.7,445.6l4-0.6l-0.6-4l-4,0.6L-424.7,445.6z M-416.7,444.5l4-0.6l-0.6-4l-4,0.6L-416.7,444.5z M-408.6,443.3l4-0.6l-0.6-4
					l-4,0.6L-408.6,443.3z M-400.6,442.2l4-0.6l-0.6-4l-4,0.6L-400.6,442.2z M-392.5,441l4-0.6l-0.6-4l-4,0.6L-392.5,441z
					 M-384.5,439.9l4-0.6l-0.6-4l-4,0.6L-384.5,439.9z M-373,434.1l-4,0.6l0.6,4l4-0.6L-373,434.1z M-421.8,437l0.6,4l4-0.6l-0.6-4
					L-421.8,437z M-413.8,435.8l0.6,4l4-0.6l-0.6-4L-413.8,435.8z M-405.7,434.7l0.6,4l4-0.6l-0.6-4L-405.7,434.7z M-397.7,433.5
					l0.6,4l4-0.6l-0.6-4L-397.7,433.5z M-389.6,432.4l0.6,4l4-0.6l-0.6-4L-389.6,432.4z M-381.6,431.3l0.6,4l4-0.6l-0.6-4
					L-381.6,431.3z"/>
			</g>
		</g>
		<g id="icon_3_" class="st1">
			<g>
				<path class="st3" d="M-372.5,356.1c0,0-14.9-24.4-18.8-27.9c-3.8-3.6-5-4.6-8.2-4c-8.1,1.4-1.9,17.8-1.9,17.8l1.4,3.2
					c0,0-6.2-4.6-9.6-0.7c-1.6,1.8-2.6,4.9-1.2,7.1c6.6,10.7,13.4,19.3,13.4,19.3l-18.3-2c0,0-30.7,2.2-27.8,12
					c2.6,8.9,15.7,8.1,28.2,8.8c11,0.6,24,11.4,11.2,21.3c-15.4,12-33.1-22-38.1-22.9c-20-3.8-11.6,21.3-9,25.1s31.5,38.8,31.5,38.8
					s12.2-1.6,23.9-3.2c10.6-1.4,20.8-2.8,20.8-2.8l18.3-46.5L-372.5,356.1z M-379.1,439.9l-36.6,6.1c0,0-29.3-36.4-30.5-38.6
					c-1.2-2.2-6.7-14.7,3.3-11.1c1.5,0.6,14.6,21.7,30.1,22.9c26,2.1,27.9-36.8-6.9-36.2c-5.5,0.1-16.4-0.1-16.5-4
					c-0.1-4,22.6-4.1,22.6-4.1l30.4,4.1c0,0-24.7-28-20.3-28.4c2.4-0.3,14.2,8.1,14.2,8.1s-13.2-25.8-7.2-27.2
					c1.5-0.4,16.2,25.6,16.2,25.6l8.4,19.6l7.9,21.7L-379.1,439.9z"/>
			</g>
		</g>
	</g>
	<g id="down_1_" class="st0">
		<g id="dots_3_" class="st1">
			<g>
				<path class="st2" d="M-432.1,400.3v-4.8h-4.7v4.8H-432.1z M-432.1,390.7V386h-4.7v4.8L-432.1,390.7L-432.1,390.7z M-432.1,381.2
					v-4.8h-4.7v4.8H-432.1z M-432.1,371.7v-4.8h-4.7v4.8H-432.1z M-432.1,362.1v-4.8h-4.7v4.8H-432.1z M-432.1,352.6v-4.8h-4.7v4.8
					H-432.1z M-432.1,338.3h-4.7v4.8h4.7V338.3z M-446.3,400.3h4.7v-4.8h-4.7V400.3z M-441.6,386h-4.7v4.8h4.7V386z M-441.6,376.4
					h-4.7v4.8h4.7V376.4z M-441.6,366.9h-4.7v4.8h4.7V366.9z M-441.6,357.4h-4.7v4.8h4.7V357.4z M-441.6,347.8h-4.7v4.8h4.7V347.8z
					 M-441.6,338.3h-4.7v4.8h4.7V338.3z M-441.6,395.5h4.7v-4.8h-4.7V395.5z M-441.6,386h4.7v-4.8h-4.7V386z M-441.6,376.4h4.7v-4.8
					h-4.7C-441.6,371.6-441.6,376.4-441.6,376.4z M-441.6,366.9h4.7v-4.8h-4.7C-441.6,362.1-441.6,366.9-441.6,366.9z M-441.6,357.4
					h4.7v-4.8h-4.7C-441.6,352.6-441.6,357.4-441.6,357.4z M-441.6,343.1v4.8h4.7v-4.8C-436.9,343.1-441.6,343.1-441.6,343.1z
					 M-451,390.7v4.8h4.7v-4.8H-451z M-451,381.2v4.8h4.7v-4.8H-451z M-451,371.7v4.8h4.7v-4.8H-451z M-451,362.1v4.8h4.7v-4.8H-451
					z M-451,352.6v4.8h4.7v-4.8H-451z M-451,343.1v4.8h4.7v-4.8H-451z"/>
			</g>
		</g>
		<path id="icon_4_" class="st4" d="M-374,324c5.9,0,10.7,6,10.7,11.9c0,3.5-3.6,4.8-3.6,4.8c9.2,0,10.6,16,5,16.9
			c6,1.2,8.2,6.5,8.1,12.8c-0.1,5.9-2.4,8-2.4,8s4.7,6,4.7,11c0,7.2-5.8,13.1-13,13.1l-27.3-0.5c0,0,6.6,19.7,4.7,35.5
			c-0.9,8.7-6.3,14-13.3,14.3c-13.1,0.5-11-13.3-11.4-18.8c-0.4-4.5-3.6-9.3-6.2-13.9c-3.1-0.9-3.8-1.9-6.7-3
			c-21.4-8.3-36-23.3-36-45.9c0.2-25.4,20.9-46.2,46.4-46.2H-374L-374,324z M-374,331.1c2,0,3.6,2.8,3.6,4.8c0,4.3-9.5,4.8-9.5,4.8
			v7h9.5c3.3,0,4.7,1.6,4.7,4.9c0,3.3-0.3,4.8-3.6,4.8h-5.9v7.1h10.7c3.3,0,3.6,3.6,3.6,6.9c0,6.1-14.2,4.7-14.2,4.7v7.1h9.5
			c3.3,0,7.1,3,7.1,6.3c0,3.3-2.7,6-5.9,6l-36.7-0.4c0,0,11,35.9,7.1,45c-2,4.7-8.7,8.1-9.5,0s-4.8-20.2-9.5-26.1
			c-1.9-2.5-7.3-3.3-9.5-4.2c-14.6-5.8-30.8-17.6-30.8-39.3s17.5-39.3,39.1-39.3h40.2V331.1L-374,331.1z"/>
	</g>
</g>
<g id="row2_1_">
	<g id="five_expand_1_" class="st0">
		<g id="dots_4_" class="st1">
			<g>
				<path class="st2" d="M-432.4,428v4h4v-4H-432.4z M-420.4,428h-4v4h4V428z M-412.4,428h-4v4h4V428z M-404.4,428h-4v4h4V428z
					 M-396.4,428h-4v4h4V428z M-388.4,428h-4v4h4V428z M-380.4,428h-4v4h4V428z M-432.4,436v4h4v-4H-432.4z M-424.4,436v4h4v-4
					H-424.4z M-416.4,436v4h4v-4H-416.4z M-408.4,436v4h4v-4H-408.4z M-400.4,436v4h4v-4H-400.4z M-392.4,436v4h4v-4H-392.4z
					 M-380.4,440v-4h-4v4H-380.4z M-424.4,432h-4v4h4V432z M-416.4,436v-4h-4v4H-416.4z M-408.4,436v-4h-4v4H-408.4z M-400.4,436v-4
					h-4v4H-400.4z M-392.4,436v-4h-4v4H-392.4z M-388.4,432v4h4v-4H-388.4z M-428.4,444h4v-4h-4V444z M-420.4,444h4v-4h-4V444z
					 M-412.4,444h4v-4h-4V444z M-404.4,444h4v-4h-4V444z M-396.4,444h4v-4h-4V444z M-388.4,444h4v-4h-4V444z"/>
			</g>
		</g>
		<g id="icon_5_" class="st1">
			<g>
				<path class="st3" d="M-370.9,426.7c-0.1,0.4-0.3,0.8-0.5,1.1C-371.2,427.5-371.1,427.2-370.9,426.7z M-354.4,367c0-5-5-8.8-10-9
					c-6.1-0.3-14,20-14,20s7.5-28.4,8-32s-0.8-11.5-10-12c-12-0.6-14,36-14,36h-2c0,0,1.6-34-2-42c-1.1-2.3-4.7-4.1-7-4
					c-6.1,0.2-11,4.9-11,11l1.7,33.6l-7.9-26.1c-1.2-5.4-6.6-8.8-12-7.5c-5.4,1.2-8.8,6.6-7.5,12c0,0,5,22.1,8.6,37.7
					c1.9,8.4-0.8-0.6-0.8-0.6s-5.7-15.2-18.8-11.4c-8.7,4.8-2.6,12.4,1.3,24.2c1.9,5.9,1.4,9.7,3.4,17.1c6.1,22.1,19.5,38,41,38
					c16.3,0,30.3-10,36.1-24.2C-374.3,434.7-354.4,367-354.4,367z M-377.2,426.3c-5.2,11.6-16.8,19.7-30.2,19.7
					c-18.2,0-28.1-13.7-33-26c-2.7-6.8-3.2-16.1-6.2-25.3c-2.7-8.2-7.1-14-3.4-16.4c4.6-2.9,13,10.1,18.4,19.6
					c9.2,16.6,4.6-11.4,4.6-11.4l-9.3-40.9c-0.5-2.2,0.9-4.3,3-4.8c2.2-0.5,4.3,0.9,4.8,3l11.3,40.7l7-0.5l-0.2-49
					c0-5.3,7.8-6.7,8-1c0.3,7,2,52,2,52h8l8-40c1.7-6.3,8-7.2,8-1l-8,45h6c0,0,9.5-22.5,14-26c1.7,0,4,1.3,4,3
					C-360.4,367-378.7,428.4-377.2,426.3c0.3-0.7,0.6-1.3,0.8-2C-376.9,425.5-377.1,426.2-377.2,426.3z"/>
			</g>
		</g>
	</g>
	<g id="up_1_" class="st0">
		<g id="dots_5_" class="st1">
			<g>
				<path class="st2" d="M-432.1,375.7h-4.7v4.8h4.7V375.7z M-432.1,390v-4.8h-4.7v4.8H-432.1z M-432.1,399.6v-4.8h-4.7v4.8H-432.1z
					 M-432.1,409.1v-4.8h-4.7v4.8H-432.1z M-432.1,418.6v-4.8h-4.7v4.8H-432.1z M-432.1,428.2v-4.8h-4.7v4.8H-432.1z M-432.1,437.7
					v-4.8h-4.7v4.8H-432.1z M-441.5,375.7h-4.7v4.8h4.7V375.7z M-441.5,385.3h-4.7v4.7h4.7V385.3z M-441.5,394.8h-4.7v4.8h4.7V394.8
					z M-441.5,404.3h-4.7v4.8h4.7V404.3z M-441.5,413.9h-4.7v4.8h4.7V413.9z M-441.5,423.4h-4.7v4.8h4.7V423.4z M-446.3,437.7h4.7
					v-4.8h-4.7V437.7z M-441.5,380.5v4.8h4.7v-4.8H-441.5z M-441.5,394.8h4.7V390h-4.7V394.8z M-441.5,404.3h4.7v-4.8h-4.7V404.3z
					 M-441.5,413.9h4.7v-4.8h-4.7V413.9z M-441.5,423.4h4.7v-4.8h-4.7V423.4z M-441.5,432.9h4.7v-4.8h-4.7V432.9z M-451,380.5v4.8
					h4.7v-4.8H-451z M-451,390v4.8h4.7V390H-451z M-451,399.6v4.8h4.7v-4.8H-451z M-451,409.1v4.8h4.7v-4.8H-451z M-451,418.6v4.8
					h4.7v-4.8H-451z M-451,428.2v4.8h4.7v-4.8H-451z"/>
			</g>
		</g>
		<path id="icon_6_" class="st4" d="M-374,452c5.9,0,10.7-6,10.7-11.9c0-3.5-3.6-4.8-3.6-4.8c9.2,0,10.6-16,5-16.9
			c6-1.2,8.2-6.5,8.1-12.8c-0.1-5.9-2.4-8-2.4-8s4.7-6,4.7-11c0-7.2-5.8-13.1-13-13.1l-27.2,0.5c0,0,6.6-19.7,4.7-35.5
			c-1-8.9-6.3-14.2-13.3-14.5c-13.1-0.5-11,13.3-11.4,18.8c-0.4,4.5-3.6,9.3-6.2,13.9c-3.1,0.9-3.8,1.9-6.7,3
			c-21.4,8.3-36,23.3-36,45.9c0,25.7,20.7,46.5,46.2,46.5h40.4V452z M-374,444.9c2,0,3.6-2.8,3.6-4.8c0-4.3-9.5-4.8-9.5-4.8v-7h9.5
			c3.3,0,4.7-1.6,4.7-4.9s-0.3-4.8-3.6-4.8h-5.9v-7.2h10.7c3.3,0,3.6-3.6,3.6-6.9c0-6.1-14.2-4.7-14.2-4.7v-7.1h9.5
			c3.3,0,7.1-3,7.1-6.3c0-3.3-2.7-6-5.9-6l-36.7,0.4c0,0,11-35.9,7.1-45c-2-4.7-8.7-8.1-9.5,0c-0.8,8.1-4.8,20.2-9.5,26.1
			c-1.9,2.5-7.3,3.4-9.5,4.2c-14.5,5.8-30.8,17.6-30.8,39.3c0,21.7,17.5,39.3,39.1,39.3h40.2V444.9L-374,444.9z"/>
	</g>
	<g id="two_x5F_thumb_1_" class="st0">
		<g id="dots_6_" class="st1">
			<g>
				<path class="st2" d="M-428.3,426.8v4.2h4.2v-4.2H-428.3z M-415.7,426.8h-4.2v4.2h4.2V426.8z M-407.3,426.8h-4.2v4.2h4.2V426.8z
					 M-398.9,426.8h-4.2v4.2h4.2V426.8z M-390.5,426.8h-4.2v4.2h4.2V426.8z M-382.1,426.8h-4.2v4.2h4.2V426.8z M-373.7,426.8h-4.2
					v4.2h4.2V426.8z M-428.3,435.2v4.2h4.2v-4.2H-428.3z M-419.9,435.2v4.2h4.2v-4.2H-419.9z M-411.5,435.2v4.2h4.2v-4.2H-411.5z
					 M-403.1,435.2v4.2h4.2v-4.2H-403.1z M-394.7,435.2v4.2h4.2v-4.2H-394.7z M-386.3,435.2v4.2h4.2v-4.2H-386.3z M-373.7,439.4
					v-4.2h-4.2v4.2H-373.7z M-419.9,431h-4.2v4.2h4.2V431z M-411.5,435.2V431h-4.2v4.2H-411.5z M-403.1,435.2V431h-4.2v4.2H-403.1z
					 M-394.7,435.2V431h-4.2v4.2H-394.7z M-386.3,435.2V431h-4.2v4.2H-386.3z M-382.1,431v4.2h4.2V431H-382.1z M-424.1,443.6h4.2
					v-4.2h-4.2V443.6z M-415.7,443.6h4.2v-4.2h-4.2V443.6z M-407.3,443.6h4.2v-4.2h-4.2V443.6z M-398.9,443.6h4.2v-4.2h-4.2V443.6z
					 M-390.5,443.6h4.2v-4.2h-4.2V443.6z M-382.1,443.6h4.2v-4.2h-4.2V443.6z"/>
			</g>
		</g>
		<path id="icon_7_" class="st4" d="M-361.1,388c0-5.2-5.3-9.4-10.5-9.4c-1.6,0-4.2,0-4.2,0v1c0-6.4-4.1-11.5-10.5-11.5
			c-3,0-3.7,2.4-4.7,2.8c-0.1-0.3-0.4-7-11-7c-3.7,0-5.2,2.1-5.2,2.1s0-20.1,0-29.4c-0.1-7.6-7.2-12.6-11.7-12.6
			c-6.4,0-11.5,5.2-11.5,11.5v45.1c0,0-0.7-16.3-14.7-14.7c-9.6,3.5-4.8,12.2-2.7,25c1,6.3,0.6,13.5,2.7,21.2
			c6.4,23.2,20.4,39.9,43,39.9c22.6,0,40.9-18.3,40.9-40.9L-361.1,388L-361.1,388z M-367.4,388c0-1.7-2.5-3.1-4.2-3.1
			c-1.7,0-4.2,1.4-4.2,3.1v1h-6.3v-9.4c0-2.9-1.3-5.2-4.2-5.2s-4.2,2.3-4.2,5.2v9.4h-6.3v-13.6c0-2.9-2.3-5.2-5.2-5.2
			c-2.9,0-5.2,2.3-5.2,5.2V389h-6.3v-53.5c0-2.9-2.4-5.2-5.2-5.2c-2.9,0-5.2,2.3-5.2,5.2v70.3c0,0-10.8-37-18.9-33.6
			c-4.2,1.8-0.6,8.4,0.8,17.3c1.6,9.9,2.7,21.7,5.5,28.9c5.2,12.9,15.5,27.3,34.6,27.3s34.6-15.5,34.6-34.6V388H-367.4z"/>
	</g>
	<g id="three_x5F_thumb_1_" class="st0">
		<g id="dots_7_" class="st1">
			<g>
				<path class="st2" d="M-427.2,428v4h4v-4H-427.2z M-415.2,428h-4v4h4V428z M-407.2,428h-4v4h4V428z M-399.2,428h-4v4h4V428z
					 M-391.2,428h-4v4h4V428z M-383.2,428h-4v4h4V428z M-375.2,428h-4v4h4V428z M-427.2,436v4h4v-4H-427.2z M-419.2,436v4h4v-4
					H-419.2z M-411.2,436v4h4v-4H-411.2z M-403.2,436v4h4v-4H-403.2z M-395.2,436v4h4v-4H-395.2z M-387.2,436v4h4v-4H-387.2z
					 M-375.2,440v-4h-4v4H-375.2z M-419.2,432h-4v4h4V432z M-411.2,436v-4h-4v4H-411.2z M-403.2,436v-4h-4v4H-403.2z M-395.2,436v-4
					h-4v4H-395.2z M-387.2,436v-4h-4v4H-387.2z M-383.2,432v4h4v-4H-383.2z M-423.2,444h4v-4h-4V444z M-415.2,444h4v-4h-4V444z
					 M-407.2,444h4v-4h-4V444z M-399.2,444h4v-4h-4V444z M-391.2,444h4v-4h-4V444z M-383.2,444h4v-4h-4V444z"/>
			</g>
		</g>
		<path id="icon_8_" class="st4" d="M-363.2,391c0-5-5-9-10-9c-1.5,0-4,0-4,0s0.6-10-10-10c-1.2,0-3.2,0.2-4.2,0.5
			c-0.1-0.3,0-39.2-0.1-39.7c-1-5-5.5-8.8-10.8-8.8c-6.1,0-11,4.9-11,11c0,0,0.1,1.7,0,5c-1.2-1.6-3.4-2-5-2c-6.1,0-11,4.9-11,11v35
			c0,0-0.7-15.6-14-14c-9.2,3.3-4.5,11.6-2.6,23.8c1,6,0.6,12.9,2.6,20.2c6.1,22.1,19.5,38,41,38s39-17.5,39-39L-363.2,391
			L-363.2,391z M-369.2,391c0-1.7-2.3-3-4-3c-1.7,0-4,1.3-4,3v1h-6v-9c0-2.8-1.2-5-4-5c-2.8,0-4,2.2-4,5v9h-6v-57c0-2.8-2.2-5-5-5
			c-2.8,0-5,2.2-5,5v57h-6v-43c0-2.8-2.2-5-5-5c-2.8,0-5,2.2-5,5v59c0,0-10.3-35.3-18-32c-4,1.7-0.6,8,0.7,16.5
			c1.5,9.4,2.5,20.7,5.3,27.5c4.9,12.3,14.8,26,33,26c18.2,0,33-14.8,33-33V391z"/>
	</g>
	<g id="one_3_" class="st0">
		<g id="dots_26_" class="st1">
			<g>
				<path class="st2" d="M-444,362.2h-4.3v4.3h4.3V362.2z M-444,375.2v-4.3h-4.3v4.3H-444z M-444,383.8v-4.3h-4.3v4.3H-444z
					 M-444,392.5v-4.3h-4.3v4.3H-444z M-444,401.1v-4.3h-4.3v4.3H-444z M-444,409.8v-4.3h-4.3v4.3H-444z M-444,418.4v-4.3h-4.3v4.3
					H-444z M-452.6,362.2h-4.4v4.3h4.3L-452.6,362.2L-452.6,362.2z M-452.6,370.9h-4.4v4.3h4.3L-452.6,370.9L-452.6,370.9z
					 M-452.6,379.5h-4.4v4.3h4.3L-452.6,379.5L-452.6,379.5z M-452.6,388.2h-4.4v4.3h4.3L-452.6,388.2L-452.6,388.2z M-452.6,396.8
					h-4.4v4.3h4.3L-452.6,396.8L-452.6,396.8z M-452.6,405.4h-4.4v4.3h4.3L-452.6,405.4L-452.6,405.4z M-457,418.4h4.3v-4.3h-4.3
					V418.4z M-452.6,366.5v4.3h4.3v-4.3H-452.6z M-452.6,379.5h4.3v-4.3h-4.3V379.5z M-452.6,388.2h4.3v-4.3h-4.3V388.2z
					 M-452.6,396.8h4.3v-4.3h-4.3V396.8z M-452.6,405.4h4.3v-4.3h-4.3C-452.6,401.1-452.6,405.4-452.6,405.4z M-452.6,414.1h4.3
					v-4.3h-4.3V414.1z M-461.3,366.5v4.3h4.3v-4.3H-461.3z M-461.3,375.2v4.3h4.3v-4.3H-461.3z M-461.3,383.8v4.3h4.3v-4.3H-461.3z
					 M-461.3,392.5v4.3h4.3v-4.3H-461.3z M-461.3,401.1v4.3h4.3v-4.3H-461.3z M-461.3,409.8v4.3h4.3v-4.3H-461.3z"/>
			</g>
		</g>
		<path id="icon_14_" class="st4" d="M-395.2,431.4c5.4,0,9.8-5.4,9.8-10.8c0-1.6,0-4.3,0-4.3h-5.4c6.6,0,11.9-4.2,11.9-10.8
			c0-1.3-0.2-3.5-0.6-4.5c0.3-0.1-3,0-2.5-0.1c5.5-1.1,9.6-5.9,9.6-11.7c0-4.2,0-5.4,0-5.4s14.3,0,19.5,0c11,0,10.8-13.3,10.8-11.9
			c0-6.6-5.3-11.9-11.9-11.9h-42.2h2.2c0,0-0.3-9-8.7-13c-6-2.8-24.2-2.7-26-2.2c-24,7.1-41.3,21.2-41.3,44.4
			c0,23.3,18.9,42.1,42.3,42.1L-395.2,431.4L-395.2,431.4z M-395.2,424.9c1.8,0,3.3-2.5,3.3-4.3s-1.5-4.3-3.3-4.3h-9.8v-6.5h14.1
			c3,0,5.4-1.3,5.4-4.3s-2.4-4.3-5.4-4.3h-14v-6.5h20.6c3,0,5.4-2.4,5.4-5.4s-2.4-5.4-5.4-5.4h-20.6v-6.5h51c3,0,5.4-2.4,5.4-5.4
			s-2.4-5.4-5.4-5.4h-68.4l21.7-6.5c0,0-0.2-4.2-4.3-6.5c-9.1-5-20.5-4.2-30.4,0c-13.2,5.6-28.2,16-28.2,35.7s16,35.7,35.8,35.7
			h32.5L-395.2,424.9L-395.2,424.9z"/>
	</g>
</g>
<g id="row1_1_">
	<g id="five_1_" class="st0">
		<g id="dots_8_" class="st1">
			<g>
				<path class="st2" d="M-192.4,266v4h4v-4H-192.4z M-180.3,266h-4v4h4V266z M-172.3,266h-4v4h4V266z M-164.2,266h-4v4h4V266z
					 M-156.2,266h-4v4h4V266z M-148.1,266h-4v4h4V266z M-140.1,266h-4v4h4V266z M-192.4,274v4h4v-4H-192.4z M-184.3,274v4h4v-4
					H-184.3z M-176.3,274v4h4v-4H-176.3z M-168.2,274v4h4v-4H-168.2z M-160.2,274v4h4v-4H-160.2z M-152.1,274v4h4v-4H-152.1z
					 M-140.1,278v-4h-4v4H-140.1z M-184.3,270h-4v4h4V270z M-176.3,274v-4h-4v4H-176.3z M-168.2,274v-4h-4v4H-168.2z M-160.2,274v-4
					h-4v4H-160.2z M-152.1,274v-4h-4v4H-152.1z M-148.1,270v4h4v-4H-148.1z M-188.3,282h4v-4h-4V282z M-180.3,282h4v-4h-4V282z
					 M-172.3,282h4v-4h-4V282z M-164.2,282h4v-4h-4V282z M-156.2,282h4v-4h-4V282z M-148.1,282h4v-4h-4V282z"/>
			</g>
		</g>
		<path id="icon_9_" class="st4" d="M-128,205c0-5-5.1-9-10.1-9c-1.5,0-4,0-4,0v-13c0-6.1-4-11-10.1-11c-1.2,0-3.2,0.2-4.2,0.5
			c-0.1-0.3,0-1.2-0.1-1.7c-1-5-5.5-8.8-10.8-8.8c-6.1,0-11.1,4.9-11.1,11c0,0,0.1,1.7,0,5c-1.2-1.6-3.4-2-5-2
			c-6.1,0-11.1,4.9-11.1,11v35c0,0-0.7-15.6-14.1-14c-9.2,3.3-4.6,11.6-2.6,23.8c1,6,0.6,12.9,2.6,20.2c6.2,22.1,19.6,38,41.2,38
			c21.7,0,39.2-17.5,39.2-39v-46H-128z M-134,205c0-1.7-2.4-3-4-3c-1.7,0-4,1.3-4,3v25h-6v-47c0-2.8-1.2-5-4-5s-4,2.2-4,5v47h-6v-57
			c0-2.8-2.2-5-5-5s-5,2.2-5,5v57h-6v-43c0-2.8-2.2-5-5-5s-5,2.2-5,5v59c0,0-10.4-35.3-18.1-32c-4,1.7-0.6,8,0.7,16.5
			c1.5,9.5,2.6,20.7,5.3,27.5c4.9,12.3,14.9,26,33.2,26s33.2-14.8,33.2-33v-46H-134z"/>
	</g>
	<g id="four_1_" class="st0">
		<g id="dots_9_" class="st1">
			<g>
				<path class="st2" d="M-194.8,266v4h4v-4H-194.8z M-182.8,266h-4v4h4V266z M-174.8,266h-4v4h4V266z M-166.9,266h-4v4h4V266z
					 M-158.9,266h-4v4h4V266z M-150.9,266h-4v4h4V266z M-143,266h-4v4h4V266z M-194.8,274v4h4v-4H-194.8z M-186.8,274v4h4v-4H-186.8
					z M-178.8,274v4h4v-4H-178.8z M-170.9,274v4h4v-4H-170.9z M-162.9,274v4h4v-4H-162.9z M-154.9,274v4h4v-4H-154.9z M-143,278v-4
					h-4v4H-143z M-186.8,270h-4v4h4V270z M-178.8,274v-4h-4v4H-178.8z M-170.9,274v-4h-4v4H-170.9z M-162.9,274v-4h-4v4H-162.9z
					 M-154.9,274v-4h-4v4H-154.9z M-150.9,270v4h4v-4H-150.9z M-190.8,282h4v-4h-4V282z M-182.8,282h4v-4h-4V282z M-174.8,282h4v-4
					h-4V282z M-166.9,282h4v-4h-4V282z M-158.9,282h4v-4h-4V282z M-150.9,282h4v-4h-4V282z"/>
			</g>
		</g>
		<path id="icon_10_" class="st4" d="M-131,205c0-5-5-9-10-9c-1.5,0-4,0-4,0v-13c0-6.1-3.9-11-10-11c-1.2,0-3.2,0.2-4.2,0.5
			c-0.1-0.3,0-1.2-0.1-1.7c-1-5-5.4-8.8-10.7-8.8c-6.1,0-11,4.9-11,11c0,0,0.1,1.7,0,5c-1.2-1.6-3.4-2-5-2c-6.1,0-11,4.9-11,11v35
			v-2c0,0-8.3,0.3-12,8c-2.6,5.5-2.5,22.3-2,24c6.5,22,19.4,38,40.9,38s38.9-17.5,38.9-39v-46H-131z M-137,205c0-1.7-2.3-3-4-3
			s-4,1.3-4,3v25h-6v-47c0-2.8-1.2-5-4-5s-4,2.2-4,5v47h-6v-57c0-2.8-2.2-5-5-5s-5,2.2-5,5v57h-6v-43c0-2.8-2.2-5-5-5s-5,2.2-5,5v59
			l-6-20c0,0-3.9,0.2-6,4c-4.6,8.4-3.8,18.9,0,28c5.1,12.2,14.7,26,32.9,26c18.4,0,33.1-14.8,33.1-33V205z"/>
	</g>
	<g id="three_1_" class="st0">
		<g id="dots_10_" class="st1">
			<g>
				<path class="st2" d="M-194.8,266v4h4v-4H-194.8z M-182.8,266h-4v4h4V266z M-174.8,266h-4v4h4V266z M-166.9,266h-4v4h4V266z
					 M-158.9,266h-4v4h4V266z M-150.9,266h-4v4h4V266z M-143,266h-4v4h4V266z M-194.8,274v4h4v-4H-194.8z M-186.8,274v4h4v-4H-186.8
					z M-178.8,274v4h4v-4H-178.8z M-170.9,274v4h4v-4H-170.9z M-162.9,274v4h4v-4H-162.9z M-154.9,274v4h4v-4H-154.9z M-143,278v-4
					h-4v4H-143z M-186.8,270h-4v4h4V270z M-178.8,274v-4h-4v4H-178.8z M-170.9,274v-4h-4v4H-170.9z M-162.9,274v-4h-4v4H-162.9z
					 M-154.9,274v-4h-4v4H-154.9z M-150.9,270v4h4v-4H-150.9z M-190.8,282h4v-4h-4V282z M-182.8,282h4v-4h-4V282z M-174.8,282h4v-4
					h-4V282z M-166.9,282h4v-4h-4V282z M-158.9,282h4v-4h-4V282z M-150.9,282h4v-4h-4V282z"/>
			</g>
		</g>
		<path id="icon_11_" class="st4" d="M-131,221c0-5-5-9-10-9c-1.5,0-4,0-4,0v-29c0-6.1-3.9-11-10-11c-1.2,0-3.2,0.2-4.1,0.5
			c-0.1-0.3,0-1.2-0.1-1.7c-1-5-5.4-8.8-10.7-8.8c-6.1,0-11,4.9-11,11c0,0,0.1,1.7,0,5c-1.2-1.6-3.4-2-5-2c-6.1,0-11,4.9-11,11v35
			v-2c0,0-8.3,0.3-12,8c-2.6,5.5-2.5,22.3-2,24c6.5,22,19.4,38,40.9,38s38.9-17.5,38.9-39L-131,221L-131,221z M-137,221
			c0-1.7-2.3-3-4-3c-1.6,0-4,1.3-4,3v9h-6v-47c0-2.8-1.2-5-4-5s-4,2.2-4,5v47h-6v-57c0-2.8-2.2-5-5-5s-5,2.2-5,5v57h-6v-43
			c0-2.8-2.2-5-5-5s-5,2.2-5,5v59l-6-20c0,0-3.9,0.2-6,4c-4.6,8.4-3.8,18.9,0,28c5.1,12.2,14.7,26,32.9,26c18.4,0,33.1-14.8,33.1-33
			V221z"/>
	</g>
	<g id="two_2_" class="st0">
		<g id="dots_11_" class="st1">
			<g>
				<path class="st2" d="M-194.8,266v4h4v-4H-194.8z M-182.8,266h-4v4h4V266z M-174.8,266h-4v4h4V266z M-166.9,266h-4v4h4V266z
					 M-158.9,266h-4v4h4V266z M-150.9,266h-4v4h4V266z M-143,266h-4v4h4V266z M-194.8,274v4h4v-4H-194.8z M-186.8,274v4h4v-4H-186.8
					z M-178.8,274v4h4v-4H-178.8z M-170.9,274v4h4v-4H-170.9z M-162.9,274v4h4v-4H-162.9z M-154.9,274v4h4v-4H-154.9z M-143,278v-4
					h-4v4H-143z M-186.8,270h-4v4h4V270z M-178.8,274v-4h-4v4H-178.8z M-170.9,274v-4h-4v4H-170.9z M-162.9,274v-4h-4v4H-162.9z
					 M-154.9,274v-4h-4v4H-154.9z M-150.9,270v4h4v-4H-150.9z M-190.8,282h4v-4h-4V282z M-182.8,282h4v-4h-4V282z M-174.8,282h4v-4
					h-4V282z M-166.9,282h4v-4h-4V282z M-158.9,282h4v-4h-4V282z M-150.9,282h4v-4h-4V282z"/>
			</g>
		</g>
		<path id="icon_12_" class="st4" d="M-131,221c0-5-5-9-10-9c-1.5,0-4,0-4,0v5c0-6.1-3.9-11-10-11c-1.2,0-3.2,0.2-4.1,0.5
			c-0.1-0.3,0-35.2-0.1-35.7c-1-5-5.4-8.8-10.7-8.8c-6.1,0-11,4.9-11,11c0,0,0.1,1.7,0,5c-1.2-1.6-3.4-2-5-2c-6.1,0-11,4.9-11,11v35
			v-2c0,0-8.3,0.3-12,8c-2.6,5.5-2.5,22.3-2,24c6.5,22,19.4,38,40.9,38s38.9-17.5,38.9-39L-131,221L-131,221z M-137,221
			c0-1.7-2.3-3-4-3c-1.6,0-4,1.3-4,3v9h-6v-13c0-2.8-1.2-5-4-5s-4,2.2-4,5v13h-6v-57c0-2.8-2.2-5-5-5s-5,2.2-5,5v57h-6v-43
			c0-2.8-2.2-5-5-5s-5,2.2-5,5v59l-6-20c0,0-3.9,0.2-6,4c-4.6,8.4-3.8,18.9,0,28c5.1,12.2,14.7,26,32.9,26s33.1-14.8,33.1-33V221z"
			/>
	</g>
	<g id="one_2_">
		<g id="dots_12_">
			<g>
				<path class="st2" d="M-196.8,264v4.3h4.3V264H-196.8z M-183.8,264h-4.3v4.3h4.3V264z M-175.2,264h-4.3v4.3h4.3V264z M-166.5,264
					h-4.3v4.3h4.3V264z M-157.9,264h-4.3v4.3h4.3V264z M-149.2,264h-4.3v4.3h4.3V264z M-140.6,264h-4.3v4.3h4.3V264z M-196.8,272.6
					v4.3h4.3v-4.3H-196.8z M-188.1,272.6v4.3h4.3v-4.3H-188.1z M-179.5,272.6v4.3h4.3v-4.3H-179.5z M-170.8,272.6v4.3h4.3v-4.3
					H-170.8z M-162.2,272.6v4.3h4.3v-4.3H-162.2z M-153.6,272.6v4.3h4.3v-4.3H-153.6z M-140.6,277v-4.3h-4.3v4.3H-140.6z
					 M-188.1,268.3h-4.3v4.3h4.3V268.3z M-179.5,272.6v-4.3h-4.3v4.3H-179.5z M-170.8,272.6v-4.3h-4.3v4.3H-170.8z M-162.2,272.6
					v-4.3h-4.3v4.3H-162.2z M-153.6,272.6v-4.3h-4.3v4.3H-153.6z M-149.2,268.3v4.3h4.3v-4.3H-149.2z M-192.5,281.3h4.3V277h-4.3
					V281.3z M-183.8,281.3h4.3V277h-4.3V281.3z M-175.2,281.3h4.3V277h-4.3V281.3z M-166.5,281.3h4.3V277h-4.3V281.3z M-157.9,281.3
					h4.3V277h-4.3V281.3z M-149.2,281.3h4.3V277h-4.3V281.3z"/>
			</g>
		</g>
		<path id="icon_13_" class="st3" d="M-138.4,205.4c-1.6,0-4.7,1.4-5.5-0.3c-1.7-3.7-5.1-6.2-9.6-6.2c-1.3,0-5.5,0.4-5.5,0.4
			c-1.9-4.1-6-6.9-10.8-6.9c-4.2,0-5.4,0-5.4,0s0-14.3,0-19.5c0-10.2-11.3-10.9-12-10.9c-6.5,0-11.8,5.3-11.8,11.9V214
			c0,0-9,0.3-13,8.7c-2.8,6-2.7,24.2-2.2,26c7,23.9,21,41.2,44.3,41.2s42.2-18.9,42.2-42.3v-32.4h0.1
			C-127.6,209.8-133,205.4-138.4,205.4z M-134.1,247.7c0,19.8-16,35.8-35.7,35.8s-30.1-15-35.7-28.2c-4.2-9.9-5-21.3,0-30.4
			c2.3-4.1,6.5-4.3,6.5-4.3l6.6,21.6v-68.3c0-3,2.4-5.4,5.4-5.4s5.4,2.4,5.4,5.4v51h6.5v-20.6c0-3,2.4-5.4,5.4-5.4s5.4,2.4,5.4,5.4
			v20.6h6.5v-14.1c0-3,1.3-5.4,4.3-5.4s4.3,2.4,4.3,5.4V225h6.5v-9.8c0-1.8,2.5-3.3,4.3-3.3s4.3,1.5,4.3,3.3V247.7z"/>
	</g>
</g>
</svg>
