<?xml version="1.0" encoding="UTF-8"?>
<!DOCTYPE svg PUBLIC "-//W3C//DTD SVG 1.1//EN" "http://www.w3.org/Graphics/SVG/1.1/DTD/svg11.dtd">
<!-- Creator: CorelDRAW X5 -->
<svg xmlns="http://www.w3.org/2000/svg" xml:space="preserve" width="2048px" height="2048px" style="shape-rendering:geometricPrecision; text-rendering:geometricPrecision; image-rendering:optimizeQuality; fill-rule:evenodd; clip-rule:evenodd"
viewBox="0 0 2048 2048"
 xmlns:xlink="http://www.w3.org/1999/xlink">
 <defs>
  <style type="text/css">
   <![CDATA[
    .fil3 {fill:none}
    .fil2 {fill:#004D40}
    .fil1 {fill:#00695C}
    .fil0 {fill:#009688}
   ]]>
  </style>
 </defs>
 <g id="Layer_x0020_1">
  <metadata id="CorelCorpID_0Corel-Layer"/>
  <g id="_221078992">
   <path class="fil0" d="M1197 276c42,10 82,23 121,39 39,16 77,36 113,58l27 17 -16 27 -51 83c30,21 59,45 85,71 26,26 51,55 72,85l84 -50 27 -16 17 26c23,36 42,74 59,113 16,39 29,79 39,121l7 31 -31 8 -95 23c2,13 4,27 6,40 3,24 4,48 4,72 0,24 -1,47 -4,71 -1,13 -3,26 -6,39l95 24 30 8 -7 31c-10,42 -23,82 -39,121 -16,40 -36,78 -58,113l-17 27 -27 -16 -83 -51c-21,30 -45,59 -71,85 -26,26 -55,51 -85,72l50 84 16 27 -26 17c-36,23 -74,42 -113,59 -39,16 -79,29 -121,39l-31 7 -8 -31 -23 -95c-13,2 -27,4 -40,6 -24,3 -48,4 -72,4 -24,0 -47,-1 -71,-4 -13,-1 -26,-3 -39,-6l-24 95 -8 30 -31 -7c-42,-10 -83,-23 -122,-39 -40,-16 -78,-36 -114,-59l-26 -17 16 -27 50 -84c-30,-21 -59,-45 -85,-72 -26,-26 -50,-55 -71,-85l-83 51 -27 16 -17 -27c-22,-36 -42,-74 -58,-113 -16,-39 -29,-80 -39,-121l-7 -31 30 -8 95 -24c-2,-13 -4,-26 -6,-39 -3,-24 -4,-47 -4,-71 0,-24 1,-48 4,-72 2,-13 3,-27 6,-40l-95 -23 -31 -8 7 -31c10,-42 23,-82 39,-121 16,-39 36,-77 59,-113l17 -26 27 16 84 50c21,-30 45,-59 72,-85 26,-26 55,-50 85,-71l-51 -83 -16 -27 27 -17c36,-22 74,-42 113,-58 39,-16 80,-29 121,-39l31 -7 8 30 24 95c13,-2 26,-4 39,-6 24,-3 47,-4 71,-4 24,0 48,1 72,4 13,2 27,3 40,6l23 -95 8 -31 31 7z"/>
   <path class="fil1" d="M1024 584c121,0 231,49 311,129 80,80 129,189 129,311 0,121 -49,231 -129,311 -80,80 -189,129 -311,129 -121,0 -231,-49 -311,-129 -80,-80 -129,-189 -129,-311 0,-121 49,-231 129,-311 80,-80 189,-129 311,-129z"/>
   <path class="fil0" d="M1024 832c53,0 101,21 136,56 35,35 56,83 56,136 0,53 -21,101 -56,136 -35,35 -83,56 -136,56 -53,0 -101,-21 -136,-56 -35,-35 -56,-83 -56,-136 0,-53 21,-101 56,-136 35,-35 83,-56 136,-56z"/>
   <path class="fil2" d="M1024 864c44,0 84,18 113,47 29,29 47,69 47,113 0,44 -18,84 -47,113 -29,29 -69,47 -113,47 -44,0 -84,-18 -113,-47 -29,-29 -47,-69 -47,-113 0,-44 18,-84 47,-113 29,-29 69,-47 113,-47z"/>
  </g>
  <rect class="fil3" width="2048" height="2048"/>
 </g>
</svg>
